<?xml version="1.0" encoding="UTF-8"?>
<svg id="Capa_2" data-name="Capa 2" xmlns="http://www.w3.org/2000/svg" viewBox="0 0 184.25 184.25">
  <defs>
    <style>
      .cls-1 {
        fill: #191715;
      }

      .cls-1, .cls-2 {
        stroke-width: 7px;
      }

      .cls-1, .cls-2, .cls-3, .cls-4, .cls-5 {
        stroke: #191715;
        stroke-miterlimit: 10;
      }

      .cls-6 {
        fill: #fff8bd;
      }

      .cls-6, .cls-7, .cls-8 {
        stroke: #fff8bd;
      }

      .cls-9 {
        fill: #f8d060;
      }

      .cls-10 {
        fill: #261b12;
      }

      .cls-2, .cls-7, .cls-11, .cls-4, .cls-8 {
        fill: none;
      }

      .cls-12, .cls-5 {
        fill: #8baf26;
      }

      .cls-7 {
        stroke-width: 3px;
      }

      .cls-3 {
        fill: #1d1d1b;
        stroke-width: .25px;
      }

      .cls-11 {
        stroke: #1d1d1b;
      }

      .cls-13 {
        fill: #22612b;
      }

      .cls-14 {
        fill: #eae556;
      }

      .cls-4, .cls-5 {
        stroke-width: 6px;
      }

      .cls-8 {
        stroke-width: 12px;
      }

      .cls-15 {
        fill: #332c28;
      }
    </style>
  </defs>
  <circle class="cls-9" cx="92.73" cy="92.59" r="83.33"/>
  <g>
    <g>
      <path class="cls-5" d="M128.99,83.6c-.55-9.55-7.37-19.91-14.18-25.91-5.38-4.74-9.78-5.92-14.37-12.84-4.02-6.07-4.56-11.1-7.07-11.18-2.68-.08-3.82,5.64-8.22,11.79-4.56,6.38-9.15,10.38-13.45,12.54-2.24,1.66-15.75,10.74-16.54,25.61-.99,18.48,16.24,36.92,36.92,36.92,22.18,0,37.81-21.21,36.92-36.92Z"/>
      <path class="cls-5" d="M46.02,103.25c-3.3-.6-4.19,.74-12.54,.92-6.75,.14-8.14-.69-8.87,.31-2.65,3.64,9.43,23.58,23.54,22.62,4.09-.28,9.64-2.39,11.11-6.57,2.24-6.37-5.6-15.88-13.26-17.27Z"/>
      <path class="cls-5" d="M159.05,103c-1.32-1.4-3.33-.49-10.92,.09-6.62,.51-6.15-.11-8.56,.46-2.05,.48-8.81,2.08-11.93,8.37-1.74,3.52-2.9,9.62,.07,12.91,4.9,5.43,20.01,2.07,27.31-7.17,2.16-2.73,3.38-5.54,3.57-6.07,.73-2.05,2.36-6.58,.46-8.59Z"/>
      <path class="cls-2" d="M125.35,122.36c-5.4,1.8-9.9,2.59-13.07,2.98-7.27,.89-10.5,4.49-14.68,2.98-3.44-1.24-4.84-4.14-5.59-3.66-1.3,.83,4.29,8.58,3.1,18.48-.34,2.83-1.15,5.13-1.48,5.08-1.02-.14,2.25-23-.93-23.79-1.41-.35-1.97,4.1-6.33,6.41-6.03,3.19-13.8-.46-18.47-2.42-5.42-2.28-6.97-3.26-9.16-5.46-.63,.64-1.26,1.28-1.89,1.93"/>
    </g>
    <g>
      <path class="cls-11" d="M128.99,83.6c-.55-9.55-7.37-19.91-14.18-25.91-5.38-4.74-9.78-5.92-14.37-12.84-4.02-6.07-4.56-11.1-7.07-11.18-2.68-.08-3.82,5.64-8.22,11.79-4.56,6.38-9.15,10.38-13.45,12.54-2.24,1.66-15.75,10.74-16.54,25.61-.99,18.48,16.24,36.92,36.92,36.92,22.18,0,37.81-21.21,36.92-36.92Z"/>
      <path class="cls-11" d="M46.02,103.25c-3.3-.6-4.19,.74-12.54,.92-6.75,.14-8.14-.69-8.87,.31-2.65,3.64,9.43,23.58,23.54,22.62,4.09-.28,9.64-2.39,11.11-6.57,2.24-6.37-5.6-15.88-13.26-17.27Z"/>
      <path class="cls-11" d="M159.05,103c-1.32-1.4-3.33-.49-10.92,.09-6.62,.51-6.15-.11-8.56,.46-2.05,.48-8.81,2.08-11.93,8.37-1.74,3.52-2.9,9.62,.07,12.91,4.9,5.43,20.01,2.07,27.31-7.17,2.16-2.73,3.38-5.54,3.57-6.07,.73-2.05,2.36-6.58,.46-8.59Z"/>
      <path class="cls-11" d="M125.35,122.36c-5.4,1.8-9.9,2.59-13.07,2.98-7.27,.89-10.5,4.49-14.68,2.98-3.44-1.24-4.84-4.14-5.59-3.66-1.3,.83,4.29,8.58,3.1,18.48-.34,2.83-1.15,5.13-1.48,5.08-1.02-.14,2.25-23-.93-23.79-1.41-.35-1.97,4.1-6.33,6.41-6.03,3.19-13.8-.46-18.47-2.42-5.42-2.28-6.97-3.26-9.16-5.46-.63,.64-1.26,1.28-1.89,1.93"/>
    </g>
    <g>
      <path class="cls-8" d="M128.99,83.6c-.55-9.55-7.37-19.91-14.18-25.91-5.38-4.74-9.78-5.92-14.37-12.84-4.02-6.07-4.56-11.1-7.07-11.18-2.68-.08-3.82,5.64-8.22,11.79-4.56,6.38-9.15,10.38-13.45,12.54-2.24,1.66-15.75,10.74-16.54,25.61-.99,18.48,16.24,36.92,36.92,36.92,22.18,0,37.81-21.21,36.92-36.92Z"/>
      <path class="cls-8" d="M46.02,103.25c-3.3-.6-4.19,.74-12.54,.92-6.75,.14-8.14-.69-8.87,.31-2.65,3.64,9.43,23.58,23.54,22.62,4.09-.28,9.64-2.39,11.11-6.57,2.24-6.37-5.6-15.88-13.26-17.27Z"/>
      <path class="cls-8" d="M159.05,103c-1.32-1.4-3.33-.49-10.92,.09-6.62,.51-6.15-.11-8.56,.46-2.05,.48-8.81,2.08-11.93,8.37-1.74,3.52-2.9,9.62,.07,12.91,4.9,5.43,20.01,2.07,27.31-7.17,2.16-2.73,3.38-5.54,3.57-6.07,.73-2.05,2.36-6.58,.46-8.59Z"/>
      <path class="cls-8" d="M125.35,122.36c-5.4,1.8-9.9,2.59-13.07,2.98-7.27,.89-10.5,4.49-14.68,2.98-3.44-1.24-4.84-4.14-5.59-3.66-1.3,.83,4.29,8.58,3.1,18.48-.34,2.83-1.15,5.13-1.48,5.08-1.02-.14,2.25-23-.93-23.79-1.41-.35-1.97,4.1-6.33,6.41-6.03,3.19-13.8-.46-18.47-2.42-5.42-2.28-6.97-3.26-9.16-5.46-.63,.64-1.26,1.28-1.89,1.93"/>
    </g>
  </g>
  <path class="cls-12" d="M128.94,83.58c-.55-9.55-7.37-19.91-14.18-25.91-5.38-4.74-9.78-5.92-14.37-12.84-4.02-6.07-4.56-11.1-7.07-11.18-2.68-.08-3.82,5.64-8.22,11.79-4.56,6.38-9.15,10.38-13.45,12.54-2.24,1.66-15.75,10.74-16.54,25.61-.99,18.48,16.24,36.92,36.92,36.92,22.18,0,37.81-21.21,36.92-36.92Z"/>
  <path class="cls-12" d="M45.97,103.22c-3.3-.6-4.19,.74-12.54,.92-6.75,.14-8.14-.69-8.87,.31-2.65,3.64,9.43,23.58,23.54,22.62,4.09-.28,9.64-2.39,11.11-6.57,2.24-6.37-5.6-15.88-13.26-17.27Z"/>
  <path class="cls-12" d="M159,102.98c-1.32-1.4-3.33-.49-10.92,.09-6.62,.51-6.15-.11-8.56,.46-2.05,.48-8.81,2.08-11.93,8.37-1.74,3.52-2.9,9.62,.07,12.91,4.9,5.43,20.01,2.07,27.31-7.17,2.16-2.73,3.38-5.54,3.57-6.07,.73-2.05,2.36-6.58,.46-8.59Z"/>
  <path class="cls-14" d="M72.77,111.65c-2.86-3.98-9.42-14.25-8.45-26.88,.22-2.91,.61-7.28,3.57-11.8,3.35-5.12,8.1-7.47,10.39-8.41,1.8-.75,10.93-4.73,14.37-13.61,1.74-4.48,1.69-9.37,1.68-10.09-.05-2.83-.51-5.17-.95-6.81-.43,1.4-.87,2.81-1.3,4.21,0,0-10.13,14.37-16.55,19.72-6.42,5.35-7.95,2.75-11.46,9.17s-8.1,10.85-7.03,18.34c.83,5.82-.83,11.31,1.76,15.93,.97,1.73,2.66,3.13,3.24,3.59,0,0,.09,.08,.2,.16,1.76,1.35,6.67,4.24,10.55,6.46Z"/>
  <g>
    <path class="cls-10" d="M93.49,145.94c-18.48,0-34.96,5.82-45.75,14.93,12.87,8.55,28.4,13.54,45.11,13.54s32.8-5.19,45.81-14.03c-10.79-8.82-27.02-14.44-45.17-14.44Z"/>
    <path class="cls-7" d="M93.49,145.94c-18.48,0-34.96,5.82-45.75,14.93,12.87,8.55,28.4,13.54,45.11,13.54s32.8-5.19,45.81-14.03c-10.79-8.82-27.02-14.44-45.17-14.44Z"/>
  </g>
  <ellipse class="cls-1" cx="77.33" cy="74.41" rx="3.58" ry="4.97" transform="translate(-17.51 124.61) rotate(-71.79)"/>
  <path class="cls-13" d="M96.92,42.86c.53,2.26,1.34,3.94,1.99,5.04,1.59,2.75,3.61,4.53,5.96,6.57,1.56,1.35,2.78,2.24,3.06,2.45,4.08,3.01,9.18,9.94,11.16,15.29,4.38,11.85-2.05,28.11-12.69,35.77-7.86,5.66-18.46,6.94-20.48,7.18-4.35,.52-6.71,.2-6.73,.46-.05,.74,18.5,7.38,32.87-.31,9.07-4.85,15.68-14.98,16.51-25.59,.79-10.2-3.95-17.63-8.56-24.85-7.33-11.48-16.73-18.28-23.08-22.01Z"/>
  <path class="cls-3" d="M83.34,83.37c.22-.15,.44-.31,.66-.46,.22-.07,.44-.14,.65-.22,2.1,.47,4.74,.87,7.8,.9,3.35,.04,6.23-.36,8.47-.84,.1-.03,.38-.09,.7,.04,.24,.1,.38,.25,.44,.33,.16,.19,.32,.39,.48,.58,.13,1.94-.2,3.48-.48,4.42-.3,1.02-1.09,3.54-3.43,5.45-.1,.08-.21,.17-.34,.27-.85,.63-2.76,1.83-5.39,1.91-4.03,.12-6.69-2.52-7.34-3.21-1.36-1.44-1.99-2.97-2.29-3.9-.51-1.58-.38-2.92-.34-3.32,.07-.81,.24-1.47,.4-1.95Z"/>
  <path class="cls-13" d="M129.63,123.12c2.31,.15,7.91,.17,13.61-3.21,4.74-2.81,9.96-10.04,11.16-15.9,.14-.66,.4-2.19,1.07-2.29,.99-.15,2.73,2.81,3.06,5.5,.77,6.33-6.16,11.87-8.71,13.91-2.17,1.73-5.27,4.15-10.09,5.04-4.07,.75-7.45,.07-9.32-.46"/>
  <path class="cls-13" d="M27.37,111.65c.65-.92,6.63,5.35,15.9,5.81,7.07,.35,11.81-2.89,13.61-.61,1.2,1.52,.11,4.26-.61,5.5-2.23,3.84-7.75,4.75-11.62,3.97-2.71-.54-5.11-2.61-9.78-6.73-2.75-2.42-8.09-7.11-7.49-7.95Z"/>
  <g>
    <path class="cls-4" d="M128.97,83.9c-.55-9.55-7.37-19.91-14.18-25.91-5.38-4.74-9.78-5.92-14.37-12.84-4.02-6.07-4.56-11.1-7.07-11.18-2.68-.08-3.82,5.64-8.22,11.79-4.56,6.38-9.15,10.38-13.45,12.54-2.24,1.66-15.75,10.74-16.54,25.61-.99,18.48,16.24,36.92,36.92,36.92,22.18,0,37.81-21.21,36.92-36.92Z"/>
    <path class="cls-4" d="M45.99,103.54c-3.3-.6-4.19,.74-12.54,.92-6.75,.14-8.14-.69-8.87,.31-2.65,3.64,9.43,23.58,23.54,22.62,4.09-.28,9.64-2.39,11.11-6.57,2.24-6.37-5.6-15.88-13.26-17.27Z"/>
    <path class="cls-4" d="M159.03,103.3c-1.32-1.4-3.33-.49-10.92,.09-6.62,.51-6.15-.11-8.56,.46-2.05,.48-8.81,2.08-11.93,8.37-1.74,3.52-2.9,9.62,.07,12.91,4.9,5.43,20.01,2.07,27.31-7.17,2.16-2.73,3.38-5.54,3.57-6.07,.73-2.05,2.36-6.58,.46-8.59Z"/>
    <path class="cls-15" d="M93.41,147.45c-18.79,0-35.55,5.82-46.52,14.93,13.09,8.55,28.87,13.54,45.86,13.54s33.35-5.19,46.57-14.03c-10.98-8.82-27.47-14.44-45.92-14.44Z"/>
    <path class="cls-2" d="M125.35,122.36c-5.4,1.8-9.9,2.59-13.07,2.98-7.27,.89-10.5,4.49-14.68,2.98-3.44-1.24-4.84-4.14-5.59-3.66-1.3,.83,4.29,8.58,3.1,18.48-.34,2.83-1.15,5.13-1.48,5.08-1.02-.14,2.25-23-.93-23.79-1.41-.35-1.97,4.1-6.33,6.41-6.03,3.19-13.8-.46-18.47-2.42-5.42-2.28-6.97-3.26-9.16-5.46-.63,.64-1.26,1.28-1.89,1.93"/>
  </g>
  <ellipse class="cls-1" cx="108.89" cy="74.41" rx="4.97" ry="3.58" transform="translate(-13.92 26.33) rotate(-12.97)"/>
  <rect class="cls-6" x="37.21" y="45.4" width="15.97" height="3.59" rx="1.8" ry="1.8" transform="translate(46.61 -18.14) rotate(45)"/>
  <rect class="cls-6" x="27.01" y="63.31" width="15.97" height="3.59" rx="1.8" ry="1.8" transform="translate(22.1 -7.68) rotate(18.21)"/>
  <rect class="cls-6" x="23.82" y="83.52" width="15.97" height="3.59" rx="1.8" ry="1.8"/>
  <rect class="cls-6" x="131.86" y="46.13" width="15.97" height="3.59" rx="1.8" ry="1.8" transform="translate(272.63 -17.07) rotate(135)"/>
  <rect class="cls-6" x="142.06" y="64.04" width="15.97" height="3.59" rx="1.8" ry="1.8" transform="translate(313.16 81.49) rotate(161.79)"/>
  <rect class="cls-6" x="145.25" y="84.25" width="15.97" height="3.59" rx="1.8" ry="1.8" transform="translate(306.48 172.1) rotate(-180)"/>
  <rect class="cls-6" x="116.66" y="31.96" width="15.97" height="3.59" rx="1.8" ry="1.8" transform="translate(216.21 -57.31) rotate(120)"/>
  <rect class="cls-6" x="54.27" y="31.36" width="15.97" height="3.59" rx="1.8" ry="1.8" transform="translate(66.22 -37.27) rotate(65.18)"/>
</svg>